<svg width="35" height="20" viewBox="0 0 35 20" fill="none" xmlns="http://www.w3.org/2000/svg">
<g clip-path="url(#clip0_33_207)">
<path fill-rule="evenodd" clip-rule="evenodd" d="M31.7154 0.0490725C30.0154 0.0490726 12.0168 0.049072 1.96538 0.0490725C1.11538 0.0490725 0.265381 0.832289 0.265381 1.61551V17.2798C0.265381 18.8463 1.11538 19.6295 2.81538 19.6295C12.2978 19.6295 30.0154 19.6295 31.7154 19.6295C33.4154 19.6295 34.2654 18.8463 34.2654 17.2798V2.39872C34.2654 0.832289 33.4154 0.0490725 31.7154 0.0490725Z" fill="#265697"/>
<path fill-rule="evenodd" clip-rule="evenodd" d="M32.0425 9.93713C32.0439 14.4872 28.0845 18.1764 23.1991 18.1776C18.3137 18.1788 14.3526 14.4914 14.3513 9.94132V9.93713C14.35 5.38717 18.3094 1.69774 23.1946 1.69653C28.08 1.69532 32.0412 5.3829 32.0425 9.93295V9.93713Z" fill="#DFAC16"/>
<path fill-rule="evenodd" clip-rule="evenodd" d="M11.2767 1.69877C6.42023 1.7275 2.48804 5.40736 2.48804 9.93723C2.48804 14.4848 6.45088 18.1756 11.3337 18.1756C13.6253 18.1756 15.7142 17.3622 17.2861 16.0291C17.286 16.0291 17.2858 16.0289 17.2854 16.0287H17.2873C17.6091 15.7555 17.9093 15.4608 18.1853 15.1465H16.373C16.131 14.8743 15.9111 14.5906 15.7135 14.2979H18.8391C19.0291 14.0146 19.2012 13.7204 19.354 13.4157H15.1975C15.0558 13.1329 14.9328 12.8436 14.8278 12.5501H19.7241C20.0192 11.729 20.1793 10.8504 20.1793 9.93714C20.1793 9.33166 20.1088 8.74133 19.9754 8.17294H14.5681C14.6351 7.88043 14.7197 7.59145 14.8205 7.30749H19.7186C19.6091 7.00531 19.4819 6.71084 19.3372 6.42539H15.197C15.3463 6.12823 15.5155 5.83916 15.7045 5.56003H18.8278C18.6199 5.25162 18.3899 4.95696 18.1412 4.67784H16.3999C16.6691 4.38272 16.9655 4.10481 17.2873 3.84567C15.7153 2.51234 13.6258 1.69877 11.3337 1.69877C11.3146 1.69877 11.2957 1.69868 11.2767 1.69877Z" fill="#BF3126"/>
<path fill-rule="evenodd" clip-rule="evenodd" d="M14.5109 12.0346L14.6288 11.289C14.5644 11.289 14.4697 11.3147 14.3861 11.3147C14.0583 11.3147 14.0221 11.1523 14.043 11.0323L14.3078 9.51095H14.8061L14.9264 8.68622H14.4566L14.5522 8.17334H13.6104C13.5896 8.19268 13.0544 11.0578 13.0544 11.4067C13.0544 11.9232 13.3658 12.1532 13.8049 12.1495C14.1487 12.1468 14.4165 12.0582 14.5109 12.0346Z" fill="white"/>
<path fill-rule="evenodd" clip-rule="evenodd" d="M14.8083 10.6132C14.8083 11.8528 15.6869 12.1473 16.4353 12.1473C17.1262 12.1473 17.4301 12.0035 17.4301 12.0035L17.5961 11.1575C17.5961 11.1575 17.0705 11.3731 16.5959 11.3731C15.5846 11.3731 15.7617 10.6708 15.7617 10.6708H17.6757C17.6757 10.6708 17.7993 10.1024 17.7993 9.87081C17.7993 9.29285 17.4904 8.58862 16.4564 8.58862C15.5094 8.58881 14.8083 9.53915 14.8083 10.6132ZM16.46 9.37421C16.9915 9.37421 16.8934 9.93051 16.8934 9.97551H15.8478C15.8478 9.91805 15.9466 9.37421 16.46 9.37421Z" fill="white"/>
<path fill-rule="evenodd" clip-rule="evenodd" d="M22.425 12.0343L22.5935 11.078C22.5935 11.078 22.1314 11.2938 21.8142 11.2938C21.1461 11.2938 20.8782 10.8187 20.8782 10.3082C20.8782 9.2727 21.453 8.70301 22.0929 8.70301C22.5728 8.70301 22.958 8.95396 22.958 8.95396L23.1117 8.02482C23.1117 8.02482 22.5406 7.80957 22.051 7.80957C20.9637 7.80957 19.906 8.68804 19.906 10.3379C19.906 11.4319 20.4771 12.1544 21.6011 12.1544C21.9188 12.1545 22.425 12.0343 22.425 12.0343Z" fill="white"/>
<path fill-rule="evenodd" clip-rule="evenodd" d="M9.33215 8.60205C8.68633 8.60205 8.19126 8.79536 8.19126 8.79536L8.05459 9.551C8.05459 9.551 8.46321 9.39638 9.08087 9.39638C9.43158 9.39638 9.68815 9.4331 9.68815 9.69856C9.68815 9.85979 9.6567 9.91929 9.6567 9.91929C9.6567 9.91929 9.38006 9.89772 9.25198 9.89772C8.43745 9.89772 7.58179 10.2215 7.58179 11.1976C7.58179 11.9667 8.14314 12.1432 8.49106 12.1432C9.15554 12.1432 9.44196 11.7416 9.45724 11.7404L9.42619 12.0756H10.2555L10.6255 9.65988C10.6255 8.63506 9.66559 8.60205 9.33215 8.60205ZM9.53391 10.5689C9.55188 10.7165 9.43457 11.4082 8.86753 11.4082C8.57502 11.4082 8.49895 11.2001 8.49895 11.077C8.49895 10.8369 8.63901 10.5487 9.32915 10.5487C9.48968 10.5489 9.50685 10.5649 9.53391 10.5689Z" fill="white"/>
<path fill-rule="evenodd" clip-rule="evenodd" d="M11.5058 12.1257C11.7179 12.1257 12.9307 12.1759 12.9307 11.0104C12.9307 9.92082 11.8081 10.1361 11.8081 9.69832C11.8081 9.48037 11.9911 9.41175 12.3255 9.41175C12.4583 9.41175 12.9691 9.45108 12.9691 9.45108L13.0879 8.67656C13.0879 8.67666 12.7573 8.60767 12.219 8.60767C11.5223 8.60767 10.8151 8.86671 10.8151 9.75299C10.8151 10.7573 11.9943 10.6565 11.9943 11.0795C11.9943 11.3619 11.6648 11.3849 11.411 11.3849C10.9716 11.3849 10.576 11.2445 10.5746 11.2512L10.449 12.0179C10.4717 12.0244 10.7157 12.1257 11.5058 12.1257Z" fill="white"/>
<path fill-rule="evenodd" clip-rule="evenodd" d="M30.2259 7.9074L30.0227 9.08145C30.0227 9.08145 29.6682 8.62539 29.1132 8.62539C28.2503 8.62539 27.531 9.59442 27.531 10.7079C27.531 11.4266 27.9147 12.1308 28.6989 12.1308C29.2631 12.1308 29.5759 11.7645 29.5759 11.7645L29.5344 12.0774H30.4505L31.17 7.90601L30.2259 7.9074ZM29.7885 10.1966C29.7885 10.6599 29.5422 11.2787 29.0316 11.2787C28.6927 11.2787 28.5338 11.0138 28.5338 10.5979C28.5338 9.91781 28.8618 9.46909 29.2756 9.46909C29.6146 9.46899 29.7885 9.68592 29.7885 10.1966Z" fill="white"/>
<path fill-rule="evenodd" clip-rule="evenodd" d="M4.23205 12.0807L4.80538 8.93151L4.88954 12.0807H5.53845L6.74892 8.93151L6.21272 12.0807H7.1769L7.91945 7.90381H6.42846L5.49992 10.4666L5.4516 7.90381H4.07721L3.32397 12.0807H4.23205Z" fill="white"/>
<path fill-rule="evenodd" clip-rule="evenodd" d="M18.7443 12.0866C19.0184 10.6346 19.0692 9.45565 19.7234 9.67146C19.8379 9.10949 19.9485 8.8921 20.0734 8.65426C20.0734 8.65426 20.0148 8.64282 19.8918 8.64282C19.4701 8.64282 19.1576 9.1795 19.1576 9.1795L19.2415 8.68662H18.3646L17.7771 12.0866H18.7443Z" fill="white"/>
<path fill-rule="evenodd" clip-rule="evenodd" d="M24.5977 8.60205C23.9519 8.60205 23.4568 8.79536 23.4568 8.79536L23.3202 9.551C23.3202 9.551 23.7288 9.39638 24.3465 9.39638C24.6972 9.39638 24.9536 9.4331 24.9536 9.69856C24.9536 9.85979 24.9223 9.91929 24.9223 9.91929C24.9223 9.91929 24.6457 9.89772 24.5175 9.89772C23.7031 9.89772 22.8474 10.2215 22.8474 11.1976C22.8474 11.9667 23.4087 12.1432 23.7566 12.1432C24.4211 12.1432 24.7075 11.7416 24.7227 11.7404L24.6918 12.0756H25.5211L25.891 9.65988C25.8911 8.63506 24.9311 8.60205 24.5977 8.60205ZM24.7997 10.5689C24.8177 10.7165 24.7003 11.4082 24.1331 11.4082C23.8405 11.4082 23.7647 11.2001 23.7647 11.077C23.7647 10.8369 23.9047 10.5487 24.5948 10.5487C24.7553 10.5489 24.7724 10.5649 24.7997 10.5689Z" fill="white"/>
<path fill-rule="evenodd" clip-rule="evenodd" d="M26.6504 12.0866C26.9247 10.6346 26.9755 9.45565 27.6295 9.67146C27.7442 9.10949 27.8548 8.8921 27.9797 8.65426C27.9797 8.65426 27.9211 8.64282 27.7981 8.64282C27.3763 8.64282 27.0638 9.1795 27.0638 9.1795L27.1478 8.68662H26.2709L25.6833 12.0866H26.6504Z" fill="white"/>
</g>
<defs>
<clipPath id="clip0_33_207">
<rect width="34" height="19.5804" fill="white" transform="translate(0.265381 0.0490723)"/>
</clipPath>
</defs>
</svg>
