<svg width="27" height="27" viewBox="0 0 27 27" fill="none" xmlns="http://www.w3.org/2000/svg">
<g clip-path="url(#clip0_33_341)">
<path d="M24.3059 3.77828C22.9367 2.30662 21.0181 1.46926 19.0081 1.46616C16.9964 1.46849 15.0759 2.3054 13.7046 3.77733L13.2372 4.27117L12.7699 3.77733C10.0489 0.848813 5.46902 0.680633 2.54055 3.40162C2.41079 3.52224 2.28545 3.64751 2.16483 3.77733C-0.721612 6.89072 -0.721612 11.7023 2.16483 14.8157L12.5504 25.768C12.9097 26.1473 13.5085 26.1635 13.8878 25.8042C13.9003 25.7925 13.9123 25.7804 13.9241 25.768L24.3059 14.8157C27.1921 11.7026 27.1921 6.89133 24.3059 3.77828ZM22.937 13.513L13.2372 23.7425L3.53755 13.513C1.33247 11.1341 1.33247 7.45801 3.53755 5.07909C5.54002 2.90872 8.92286 2.77263 11.0932 4.77511C11.1986 4.87233 11.3 4.97372 11.3972 5.07909L12.5504 6.29571C12.9305 6.67331 13.544 6.67331 13.9241 6.29571L15.0773 5.08004C17.0798 2.90966 20.4626 2.77357 22.633 4.77605C22.7384 4.87328 22.8397 4.97466 22.937 5.08004C25.1612 7.46272 25.1775 11.1455 22.937 13.513Z" fill="#1C0D00"/>
<path d="M24.3059 3.77828C22.9367 2.30662 21.0181 1.46926 19.0081 1.46616C16.9964 1.46849 15.0759 2.3054 13.7046 3.77733L13.2372 4.27117L12.7699 3.77733C10.0489 0.848813 5.46902 0.680633 2.54055 3.40162C2.41079 3.52224 2.28545 3.64751 2.16483 3.77733C-0.721612 6.89072 -0.721612 11.7023 2.16483 14.8157L12.5504 25.768C12.9097 26.1473 13.5085 26.1635 13.8878 25.8042C13.9003 25.7925 13.9123 25.7804 13.9241 25.768L24.3059 14.8157C27.1921 11.7026 27.1921 6.89133 24.3059 3.77828ZM22.937 13.513L13.2372 23.7425L3.53755 13.513C1.33247 11.1341 1.33247 7.45801 3.53755 5.07909C5.54002 2.90872 8.92286 2.77263 11.0932 4.77511C11.1986 4.87233 11.3 4.97372 11.3972 5.07909L12.5504 6.29571C12.9305 6.67331 13.544 6.67331 13.9241 6.29571L15.0773 5.08004C17.0798 2.90966 20.4626 2.77357 22.633 4.77605C22.7384 4.87328 22.8397 4.97466 22.937 5.08004C25.1612 7.46272 25.1775 11.1455 22.937 13.513Z" fill="black" fill-opacity="0.2"/>
</g>
<defs>
<clipPath id="clip0_33_341">
<rect width="26.4706" height="26.4706" fill="white" transform="translate(0 0.529419)"/>
</clipPath>
</defs>
</svg>
