<svg width="35" height="35" viewBox="0 0 35 35" fill="none" xmlns="http://www.w3.org/2000/svg">
<path d="M5 0.786865H30C32.4853 0.786865 34.5 2.80158 34.5 5.28687V29.5526C34.5 32.0379 32.4853 34.0526 30 34.0526H5C2.51472 34.0526 0.5 32.0379 0.5 29.5526V5.28686C0.5 2.80158 2.51472 0.786865 5 0.786865Z" stroke="#151618" stroke-opacity="0.2"/>
<path d="M19.0596 16.2893L24.8879 9.65649H23.5068L18.4461 15.4156L14.4041 9.65649H9.74219L15.8544 18.3653L9.74219 25.3208H11.1234L16.4676 19.239L20.7362 25.3208H25.3981L19.0593 16.2893H19.0596ZM17.1679 18.4421L16.5486 17.5749L11.621 10.6744H13.7425L17.719 16.2433L18.3383 17.1105L23.5074 24.3492H21.386L17.1679 18.4424V18.4421Z" fill="#151618"/>
</svg>
