<svg width="30" height="20" viewBox="0 0 30 20" fill="none" xmlns="http://www.w3.org/2000/svg">
<path opacity="0.15" d="M1.48365 17.9511V1.72742C1.48365 0.800464 2.25125 0.0490723 3.19802 0.0490723H1.97909C1.03238 0.0490723 0.264893 0.800574 0.264893 1.72742V17.9511C0.264893 18.878 1.03238 19.6295 1.97915 19.6295H3.19807C2.25131 19.6295 1.48365 18.8779 1.48365 17.9511Z" fill="#202121"/>
<path d="M29.2653 17.9511C29.2653 18.878 28.4978 19.6295 27.5511 19.6295H1.97915C1.03238 19.6295 0.264893 18.8779 0.264893 17.9511V1.72742C0.264893 0.800464 1.03238 0.0490723 1.97915 0.0490723H27.551C28.4978 0.0490723 29.2653 0.800519 29.2653 1.72742L29.2653 17.9511Z" fill="#34495E"/>
<path d="M17.7899 9.82834C17.7922 9.294 17.5876 8.75887 17.1757 8.35562C16.763 7.95153 16.215 7.75134 15.6681 7.75456C15.6655 7.75456 15.663 7.75439 15.6602 7.75439C14.4726 7.75439 13.5305 8.67647 13.5305 9.83955C13.5305 10.9911 14.4842 11.9245 15.6602 11.9245C16.8482 11.9245 17.7902 11.0023 17.7902 9.83955C17.7902 9.83572 17.7899 9.83211 17.7899 9.82834Z" fill="#F26E21"/>
<path d="M13.1377 10.7217C12.8194 11.0337 12.5256 11.1556 12.2091 11.1622C11.4382 11.1554 10.8714 10.5964 10.8714 9.79951C10.8714 9.39836 11.0265 9.06958 11.2723 8.78871C11.5028 8.57449 11.7997 8.43608 12.1411 8.43608C12.5097 8.43608 12.7965 8.55636 13.1239 8.87715V7.95491C12.7966 7.7946 12.5096 7.71436 12.1411 7.71436C11.6205 7.75079 11.1295 7.95674 10.753 8.28014C10.6445 8.37575 10.5405 8.48127 10.4523 8.60205C10.1772 8.95107 10.011 9.37845 10.011 9.83977C10.011 11.0025 10.9533 11.8846 12.141 11.8846C12.1468 11.8846 12.1525 11.8841 12.1582 11.884C12.1661 11.8842 12.174 11.8846 12.1819 11.8846C12.5096 11.8846 12.7965 11.8046 13.1651 11.6442L13.1377 10.7217C13.1239 10.7352 13.1514 10.7478 13.1377 10.7606V10.7217Z" fill="#E7E8E3"/>
<path d="M20.4885 8.28883L19.5609 10.5215L18.496 7.87476H17.636L19.3152 11.9248H19.7657L21.5269 7.87476H20.6669L20.4885 8.28883Z" fill="#E7E8E3"/>
<path d="M21.8547 9.63917V11.8047H24.0666H24.1074V11.1629H23.4111H22.6739V10.4412V10.0805H24.0666V9.39855H22.6739V8.55655H24.1074V7.87476H21.8547V9.63917Z" fill="#E7E8E3"/>
<path d="M3.33381 7.87476H2.18677V11.8047H3.33376C3.94804 11.8047 4.39851 11.6441 4.76713 11.3634C5.2176 11.0025 5.50443 10.4413 5.50443 9.83991C5.50449 8.67672 4.64422 7.87476 3.33381 7.87476ZM4.27576 10.8423C4.03 11.0427 3.70232 11.1629 3.21079 11.1629H2.96502V8.5565H3.16978C3.66132 8.5565 3.98899 8.63668 4.23481 8.87718C4.52147 9.11763 4.68539 9.47874 4.68539 9.83974C4.72635 10.2006 4.56254 10.6014 4.27576 10.8423Z" fill="#E7E8E3"/>
<path d="M6.65247 7.87451H5.87427V11.8043H6.65247V7.87451Z" fill="#E7E8E3"/>
<path d="M8.6182 9.39814C8.12678 9.23777 8.00376 9.11738 8.00376 8.91697C8.00376 8.67636 8.24953 8.4759 8.5772 8.4759C8.82296 8.4759 9.02772 8.55614 9.23254 8.79675L9.64223 8.27549C9.31444 7.99468 8.90504 7.83447 8.45445 7.83447C7.75799 7.83447 7.18455 8.3157 7.18455 8.95707C7.18455 9.51859 7.43055 9.75914 8.16768 10.0398C8.49535 10.16 8.61826 10.2002 8.70034 10.2804C8.86386 10.3605 8.94593 10.521 8.94593 10.6812C8.94593 11.0021 8.70033 11.2427 8.33149 11.2427C7.96252 11.2427 7.63514 11.0423 7.47127 10.7214L6.97974 11.2026C7.34853 11.7239 7.79906 11.9645 8.37249 11.9645C9.19159 11.9645 9.76474 11.4432 9.76474 10.6812C9.76486 9.9997 9.51931 9.71899 8.6182 9.39814Z" fill="#E7E8E3"/>
<path d="M26.3076 10.1604C26.9218 10.0403 27.2495 9.63911 27.2495 9.03778C27.2495 8.31611 26.717 7.87476 25.8161 7.87476H24.6282V11.8047H25.4064V10.2406H25.5294L26.635 11.8047H27.5772L26.3076 10.1604ZM25.652 9.67915H25.4064V8.47631H25.652C26.1436 8.47631 26.4304 8.67672 26.4304 9.07798C26.4304 9.4788 26.1436 9.67915 25.652 9.67915Z" fill="#E7E8E3"/>
</svg>
