<svg width="35" height="20" viewBox="0 0 35 20" fill="none" xmlns="http://www.w3.org/2000/svg">
<path d="M34.2654 17.951C34.2654 18.878 33.3656 19.6294 32.2556 19.6294H2.27517C1.16519 19.6295 0.265381 18.878 0.265381 17.951V1.72742C0.265381 0.800463 1.16519 0.0490723 2.27517 0.0490723H32.2556C33.3656 0.0490723 34.2654 0.800519 34.2654 1.72742V17.951Z" fill="white"/>
<path d="M7.81361 9.95217L7.01527 6.75413C6.87881 6.31311 6.4817 6.18191 5.98551 6.16455H2.32533L2.29272 6.31067C5.14348 6.88777 7.02975 8.27998 7.81361 9.95217Z" fill="#F79F1A"/>
<path d="M16.2948 6.229H13.9299L12.4529 13.4671H14.8139L16.2948 6.229Z" fill="#059BBF"/>
<path d="M9.25231 13.4598L12.9717 6.23389H10.4688L8.15501 11.1708L7.90804 10.4254C7.45449 9.52864 6.15824 8.23796 4.63647 7.42546L6.75151 13.4623L9.25231 13.4598Z" fill="#059BBF"/>
<path d="M23.0379 11.1011C23.0467 10.2793 22.4148 9.65251 21.0533 9.1348C20.2258 8.80042 19.7214 8.57744 19.7275 8.23812C19.7275 7.93834 20.1546 7.61632 21.08 7.61632C21.8544 7.6064 22.4119 7.74758 22.848 7.89376L23.0617 7.97555L23.3822 6.4075C22.9134 6.26127 22.1806 6.10522 21.2642 6.10522C18.9295 6.10522 17.2862 7.08625 17.2713 8.49326C17.2564 9.53373 18.4461 10.1134 19.3419 10.4601C20.2614 10.8136 20.57 11.0398 20.564 11.3569C20.5581 11.8417 19.8312 12.0628 19.152 12.0628C18.2057 12.0628 17.7043 11.9538 16.9268 11.6833L16.6246 11.5674L16.2927 13.1894C16.8441 13.3906 17.8644 13.5665 18.9236 13.5738C21.4063 13.5738 23.0201 12.6053 23.0379 11.1011Z" fill="#059BBF"/>
<path d="M25.849 12.3821C26.119 12.3821 28.5307 12.3846 28.8749 12.3846C28.9461 12.6366 29.1626 13.4695 29.1626 13.4695H31.3548L29.4414 6.23633H27.6171C27.0505 6.23633 26.6294 6.36515 26.3801 6.83572L22.8708 13.4695H25.3539C25.3537 13.4695 25.7571 12.5779 25.849 12.3821ZM27.4686 8.8769C27.4569 8.8967 27.6645 8.45828 27.7832 8.18579L27.9433 8.80997C27.9433 8.80997 28.3943 10.5391 28.4891 10.9008H26.5283C26.7241 10.4847 27.4686 8.8769 27.4686 8.8769Z" fill="#059BBF"/>
<path d="M32.2556 0.0490723H2.27517C1.16519 0.0490723 0.265381 0.800463 0.265381 1.72742V3.46931H34.2654V1.72742C34.2654 0.800463 33.3656 0.0490723 32.2556 0.0490723Z" fill="#059BBF"/>
<path d="M32.2556 19.6295H2.27517C1.16519 19.6295 0.265381 18.878 0.265381 17.9511V16.2092H34.2654V17.9511C34.2654 18.878 33.3656 19.6295 32.2556 19.6295Z" fill="#F79F1A"/>
<path opacity="0.15" d="M1.69424 17.951V1.72742C1.69424 0.800463 2.59412 0.0490723 3.70416 0.0490723H2.2751C1.16519 0.0490723 0.265381 0.800463 0.265381 1.72742V17.9511C0.265381 18.878 1.16519 19.6295 2.27517 19.6295H3.70423C2.59418 19.6295 1.69424 18.878 1.69424 17.951Z" fill="#202121"/>
</svg>
