<svg width="79" height="20" viewBox="0 0 79 20" fill="none" xmlns="http://www.w3.org/2000/svg">
<path d="M60.5017 5.15723H56.2782C56.0297 5.15723 55.7813 5.40046 55.6571 5.64369L53.918 16.3459C53.918 16.5891 54.0422 16.7108 54.2906 16.7108H56.5266C56.7751 16.7108 56.8993 16.5891 56.8993 16.3459L57.3962 13.3055C57.3962 13.0623 57.6446 12.819 58.0173 12.819H59.3837C62.2408 12.819 63.8557 11.4813 64.2284 8.80571C64.4768 7.71116 64.2284 6.73824 63.7315 6.13016C62.9862 5.52208 61.8682 5.15723 60.5017 5.15723ZM60.9986 9.17056C60.7502 10.6299 59.6322 10.63 58.5142 10.63H57.7689L58.2657 7.83278C58.2657 7.71116 58.39 7.58955 58.6384 7.58955H58.8869C59.6322 7.58955 60.3775 7.58955 60.7502 8.07601C60.9986 8.19763 60.9986 8.56248 60.9986 9.17056Z" fill="#139AD6"/>
<path d="M30.0603 5.15747H25.8368C25.5883 5.15747 25.3399 5.4007 25.2157 5.64393L23.4766 16.3461C23.4766 16.5894 23.6008 16.711 23.8492 16.711H25.8368C26.0852 16.711 26.3337 16.4678 26.4579 16.2245L26.9548 13.3057C26.9548 13.0625 27.2032 12.8193 27.5759 12.8193H28.9423C31.7994 12.8193 33.4143 11.4815 33.787 8.80595C34.0354 7.71141 33.787 6.73848 33.2901 6.1304C32.5448 5.52232 31.551 5.15747 30.0603 5.15747ZM30.5572 9.1708C30.3088 10.6302 29.1908 10.6302 28.0728 10.6302H27.4517L27.9486 7.83302C27.9486 7.71141 28.0728 7.58979 28.3212 7.58979H28.5697C29.315 7.58979 30.0603 7.58979 30.433 8.07625C30.5572 8.19787 30.6814 8.56272 30.5572 9.1708Z" fill="#263B80"/>
<path d="M42.8578 9.04914H40.8702C40.746 9.04914 40.4975 9.17076 40.4975 9.29237L40.3733 9.90045L40.2491 9.65722C39.7522 9.04914 38.8827 8.80591 37.8889 8.80591C35.6529 8.80591 33.6653 10.5085 33.2927 12.8192C33.0442 14.0354 33.4169 15.1299 34.038 15.8596C34.6591 16.5893 35.5287 16.8326 36.6467 16.8326C38.51 16.8326 39.5038 15.738 39.5038 15.738L39.3795 16.3461C39.3795 16.5893 39.5038 16.711 39.7522 16.711H41.6155C41.864 16.711 42.1124 16.4677 42.2367 16.2245L43.3547 9.41399C43.2304 9.29237 42.982 9.04914 42.8578 9.04914ZM40.0007 12.9409C39.7522 14.0354 38.8827 14.8867 37.6404 14.8867C37.0193 14.8867 36.5224 14.6435 36.274 14.4002C36.0256 14.0354 35.9013 13.5489 35.9013 12.9409C36.0256 11.8463 37.0193 10.995 38.1373 10.995C38.7584 10.995 39.1311 11.2382 39.5038 11.4815C39.8764 11.8463 40.0007 12.4544 40.0007 12.9409Z" fill="#263B80"/>
<path d="M73.1625 9.04914H71.1749C71.0507 9.04914 70.8022 9.17076 70.8022 9.29237L70.678 9.90045L70.5538 9.65722C70.0569 9.04914 69.1873 8.80591 68.1936 8.80591C65.9576 8.80591 63.97 10.5085 63.5974 12.8192C63.3489 14.0354 63.7216 15.1299 64.3427 15.8596C64.9638 16.5893 65.8334 16.8326 66.9513 16.8326C68.8147 16.8326 69.8085 15.738 69.8085 15.738L69.6842 16.3461C69.6842 16.5893 69.8085 16.711 70.0569 16.711H71.9202C72.1687 16.711 72.4171 16.4677 72.5413 16.2245L73.6593 9.41399C73.5351 9.29237 73.4109 9.04914 73.1625 9.04914ZM70.3053 12.9409C70.0569 14.0354 69.1873 14.8867 67.9451 14.8867C67.324 14.8867 66.8271 14.6435 66.5787 14.4002C66.3302 14.0354 66.206 13.5489 66.206 12.9409C66.3302 11.8463 67.324 10.995 68.442 10.995C69.0631 10.995 69.4358 11.2382 69.8085 11.4815C70.3053 11.8463 70.4296 12.4544 70.3053 12.9409Z" fill="#139AD6"/>
<path d="M53.6706 9.04907H51.5588C51.3103 9.04907 51.1861 9.17069 51.0619 9.2923L48.329 13.4272L47.0868 9.53554C46.9626 9.2923 46.8384 9.17069 46.4657 9.17069H44.4781C44.2297 9.17069 44.1055 9.41392 44.1055 9.65715L46.3415 16.1028L44.2297 19.0216C44.1055 19.2648 44.2297 19.6297 44.4781 19.6297H46.4657C46.7141 19.6297 46.8384 19.508 46.9626 19.3864L53.7948 9.77877C54.1675 9.41392 53.919 9.04907 53.6706 9.04907Z" fill="#263B80"/>
<path d="M75.5321 5.52214L73.793 16.4676C73.793 16.7108 73.9172 16.8324 74.1656 16.8324H75.9047C76.1532 16.8324 76.4016 16.5892 76.5259 16.346L78.265 5.64376C78.265 5.40053 78.1407 5.27891 77.8923 5.27891H75.9047C75.7805 5.1573 75.6563 5.27891 75.5321 5.52214Z" fill="#139AD6"/>
<path d="M14.2855 1.50846C13.416 0.535535 11.8011 0.0490723 9.5651 0.0490723H3.354C2.98133 0.0490723 2.60866 0.413918 2.48444 0.778767L0 16.7105C0 17.0753 0.248444 17.3185 0.496888 17.3185H4.34777L5.34155 11.3594V11.6026C5.46577 11.2377 5.83844 10.8729 6.2111 10.8729H8.07443C11.6769 10.8729 14.4098 9.41351 15.2793 5.40018C15.2793 5.27856 15.2793 5.15694 15.2793 5.03533C15.1551 5.03533 15.1551 5.03533 15.2793 5.03533C15.4035 3.45432 15.1551 2.48139 14.2855 1.50846Z" fill="#263B80"/>
<path d="M15.1605 5.03589C15.1605 5.1575 15.1605 5.27912 15.1605 5.40074C14.2909 9.53568 11.558 10.8735 7.95558 10.8735H6.09224C5.71958 10.8735 5.34691 11.2383 5.22269 11.6032L3.98047 19.0217C3.98047 19.265 4.10469 19.5082 4.47736 19.5082H7.70713C8.0798 19.5082 8.45246 19.265 8.45246 18.9001V18.7785L9.07357 15.0084V14.7652C9.07357 14.4003 9.44624 14.1571 9.81891 14.1571H10.3158C13.4213 14.1571 15.9058 12.9409 16.5269 9.29245C16.7753 7.83306 16.6511 6.49528 15.9058 5.64397C15.7816 5.40074 15.5331 5.1575 15.1605 5.03589Z" fill="#139AD6"/>
<path d="M14.2877 4.67076C14.1635 4.67076 14.0393 4.54914 13.9151 4.54914C13.7909 4.54914 13.6666 4.54914 13.5424 4.42752C13.0455 4.30591 12.5486 4.30591 11.9275 4.30591H7.08286C6.95864 4.30591 6.83441 4.30591 6.71019 4.42752C6.46175 4.54914 6.33753 4.79237 6.33753 5.0356L5.34375 11.3596V11.6029C5.46797 11.238 5.84064 10.8732 6.2133 10.8732H8.07664C11.6791 10.8732 14.412 9.41378 15.2815 5.40045C15.2815 5.27884 15.2815 5.15722 15.4057 5.0356C15.1573 4.91399 15.0331 4.79237 14.7846 4.79237C14.412 4.67076 14.412 4.67076 14.2877 4.67076Z" fill="#232C65"/>
</svg>
