<svg width="35" height="20" viewBox="0 0 35 20" fill="none" xmlns="http://www.w3.org/2000/svg">
<path d="M34.2654 17.951C34.2654 18.878 33.3656 19.6294 32.2556 19.6294H2.27517C1.16519 19.6295 0.265381 18.878 0.265381 17.951V1.72742C0.265381 0.800519 1.16519 0.0490723 2.27517 0.0490723H32.2556C33.3656 0.0490723 34.2654 0.800519 34.2654 1.72742V17.951Z" fill="#306FC5"/>
<path opacity="0.15" d="M1.69424 17.951V1.72742C1.69424 0.800519 2.59418 0.0490723 3.70416 0.0490723H2.2751C1.16519 0.0490723 0.265381 0.800464 0.265381 1.72742V17.9511C0.265381 18.878 1.16519 19.6295 2.27517 19.6295H3.70423C2.59425 19.6295 1.69424 18.878 1.69424 17.951Z" fill="#202121"/>
<path d="M5.2146 7.88461H6.23048L5.72267 6.80493L5.2146 7.88461Z" fill="white"/>
<path d="M10.6169 11.509V12.0104H12.3255V12.5503H10.6169V13.1289H12.5101L13.3874 12.3189L12.5563 11.509H10.6169Z" fill="white"/>
<path d="M23.9641 6.80493L23.4099 7.88461H24.4721L23.9641 6.80493Z" fill="white"/>
<path d="M15.5598 13.4368V11.239L14.3591 12.3187L15.5598 13.4368Z" fill="white"/>
<path d="M17.8212 11.8562C17.775 11.6249 17.5901 11.509 17.313 11.509H16.3435V12.2031H17.3595C17.6364 12.2031 17.8212 12.0875 17.8212 11.8562Z" fill="white"/>
<path d="M21.0543 12.126C21.1467 12.0874 21.1931 11.9716 21.1931 11.8561C21.2393 11.702 21.1467 11.6248 21.0543 11.5862C20.9622 11.5476 20.8235 11.5476 20.6852 11.5476H19.7615V12.1646H20.6851C20.8234 12.1646 20.9622 12.1646 21.0543 12.126Z" fill="white"/>
<path d="M27.7028 5.80249V6.26519L27.4259 5.80249H25.2559V6.26519L24.9787 5.80249H22.0235C21.5156 5.80249 21.0999 5.87968 20.7306 6.0339V5.80249H18.6529V5.84109V6.0339C18.422 5.87974 18.145 5.80249 17.7756 5.80249H10.3414L9.83325 6.76649L9.32544 5.80249H7.66323H6.97054V6.26519L6.73965 5.80249H6.69343H4.70795L3.78431 7.6147L2.7224 9.58118L2.70288 9.61983H2.7224H5.07737H5.10685L5.12359 9.58118L5.40077 9.00292H6.00101L6.27806 9.61983H8.95596V9.58118V9.15713L9.18699 9.61978H10.5259L10.7567 9.15713V9.58118V9.61983H11.8187H17.1289H17.1751V8.61724H17.2677C17.3599 8.61724 17.3599 8.61724 17.3599 8.73297V9.58124H20.6846V9.34989C20.9616 9.46573 21.3769 9.58124 21.9311 9.58124H23.3165L23.5936 8.96443H24.2398L24.5169 9.58124H27.1949V9.19573V9.00297L27.6107 9.58124H27.7028H27.7491H29.7808V5.80249H27.7029H27.7028ZM12.0498 9.04157H11.5879H11.3109V8.81038V6.92076L11.2647 7.00921V7.00815L10.1905 9.04157H10.1565H9.90955H9.50999L8.40187 6.92076V9.04157H6.83202L6.50882 8.46319H4.93871L4.61545 9.04157H3.80376L5.16974 6.34238H6.32401L7.61688 8.92578V6.34238H7.89386H8.84021L8.86199 6.38103H8.86359L9.44617 7.43986L9.86453 8.23317L9.87934 8.19319L10.8028 6.34244H12.0497V9.04157H12.0498ZM15.2359 6.92076H13.4351V7.422H15.1897V7.96178H13.4351V8.50179H15.2359V9.08H12.6501V6.34244H15.2359V6.92076ZM18.5293 7.91504C18.5305 7.91592 18.5321 7.91653 18.5335 7.91736C18.551 7.93278 18.5659 7.94825 18.5787 7.96306C18.6671 8.05988 18.7387 8.20389 18.7422 8.41506C18.7425 8.41872 18.7427 8.42232 18.743 8.42598C18.743 8.42809 18.7434 8.42992 18.7434 8.43208C18.7434 8.4333 18.7433 8.43424 18.7433 8.43541C18.7444 8.45665 18.745 8.47833 18.745 8.50179V9.04162H18.0526V8.73303C18.0526 8.57881 18.0526 8.3474 17.9138 8.19319C17.8702 8.15676 17.826 8.13275 17.778 8.11567C17.7088 8.07823 17.5776 8.07762 17.3599 8.07762H16.5285V9.04162H15.7437V6.34244H17.4985C17.9138 6.34244 18.191 6.34244 18.422 6.45811C18.6482 6.57157 18.7849 6.75972 18.7901 7.05767C18.7794 7.46803 18.4639 7.69317 18.2372 7.76908C18.2372 7.76908 18.3912 7.79498 18.5293 7.91504ZM20.0843 9.04157H19.2992V6.34238H20.0843V9.04157ZM29.0884 9.04157H28.0724L26.5949 6.99784V8.69443L26.59 8.69044V9.04323H25.8099V9.04162H25.0249L24.7478 8.46325H23.1316L22.8545 9.08005H21.9772C21.6081 9.08005 21.146 9.00303 20.8691 8.77168C20.5921 8.54033 20.4537 8.23184 20.4537 7.73065C20.4537 7.34509 20.5459 6.95924 20.8691 6.65087C21.0998 6.41935 21.5156 6.34244 22.0234 6.34244H22.7624V6.92076H22.0234C21.7463 6.92076 21.6081 6.95919 21.423 7.07509C21.2847 7.19071 21.1923 7.422 21.1923 7.69189C21.1923 8.00043 21.2385 8.19319 21.423 8.3474C21.5619 8.46325 21.7464 8.50184 21.9772 8.50184H22.3004L23.3623 6.38114H23.8243H24.5168L25.8099 8.96454V8.83279V7.96189V7.88487V6.3812H26.9641L28.303 8.27049V6.3812H29.0883V9.04168H29.0884V9.04157Z" fill="white"/>
<path d="M17.8696 7.46624C17.883 7.4542 17.8953 7.44056 17.9056 7.42492C17.9475 7.36964 17.9954 7.27004 17.9696 7.13413C17.9685 7.12165 17.9658 7.11012 17.9626 7.09897C17.9617 7.09586 17.9619 7.09315 17.9609 7.09004L17.9604 7.0901C17.9374 7.02405 17.8788 6.98346 17.8203 6.95884C17.7277 6.92041 17.5892 6.92041 17.4507 6.92041H16.5271V7.53744H17.4507C17.5892 7.53744 17.7278 7.53744 17.8203 7.49879C17.8342 7.49291 17.8465 7.48492 17.8584 7.47588L17.8585 7.47638C17.8585 7.47638 17.8633 7.47223 17.8696 7.46624Z" fill="white"/>
<path d="M31.8121 12.8974C31.8121 12.6275 31.7199 12.3575 31.5814 12.1647V10.4297H31.5793V10.3138C31.5793 10.3138 29.6439 10.3138 29.3558 10.3138C29.0679 10.3138 28.7185 10.5451 28.7185 10.5451V10.3138H26.5945C26.2711 10.3138 25.8558 10.391 25.6709 10.5451V10.3138H21.8847V10.4297V10.5451C21.6078 10.3524 21.0995 10.3138 20.8688 10.3138H18.3753V10.4296V10.545C18.1445 10.3524 17.5901 10.3137 17.3129 10.3137H14.5429L13.8963 10.8922L13.296 10.3137H13.1026H12.7881H9.14038V10.4296V10.7342V14.2084H13.2038L13.8714 13.6507L14.4502 14.2084H14.4965H16.8379H16.944H16.9902H17.0361V13.8228V13.3216H17.2672C17.5901 13.3216 18.0059 13.3216 18.3291 13.2057V14.1696V14.2469H20.407V14.1696V13.2443H20.4991C20.6378 13.2443 20.6378 13.2443 20.6378 13.36V14.1696V14.2469H26.9174C27.3333 14.2469 27.7486 14.1696 27.9794 14.0154V14.1696V14.2469H29.9651C30.3804 14.2469 30.7963 14.2084 31.0734 14.054C31.4985 13.841 31.7665 13.464 31.8063 13.0143C31.8082 13.001 31.8105 12.9877 31.8119 12.9744L31.8092 12.9722C31.8109 12.9472 31.8121 12.9226 31.8121 12.8974ZM17.2672 12.6661H16.3435V12.7815V13.013V13.2444V13.6685H14.8258L13.9425 12.8202L13.9394 12.823L13.8963 12.7815L12.8804 13.6685H9.9253V10.9695H12.9267L13.7466 11.7195L13.919 11.8765L13.9424 11.8563L14.9122 10.9695H17.3594C17.8344 10.9695 18.3662 11.0674 18.5677 11.4709C18.592 11.5508 18.6061 11.6397 18.6061 11.7406C18.6061 12.5117 17.9596 12.6661 17.2672 12.6661ZM21.8847 12.6275C21.9769 12.7428 22.0231 12.8973 22.0231 13.1288V13.6685H21.2383V13.3216C21.2383 13.1671 21.2383 12.8973 21.0995 12.7815C21.0074 12.6661 20.8225 12.6661 20.5457 12.6661H19.7146V13.6685H18.9297V10.9309H20.6842C21.0533 10.9309 21.3765 10.9309 21.6078 11.0464C21.8385 11.1622 22.0231 11.355 22.0231 11.6635C22.0231 12.0876 21.7001 12.3189 21.4691 12.3962C21.7001 12.473 21.8385 12.5503 21.8847 12.6275ZM25.0708 11.509H23.2698V12.0103H25.0245V12.5503H23.2698V13.0902H25.0708V13.6685H22.485V10.9308H25.0708V11.509ZM27.01 13.6685H25.5324V13.0902H27.01C27.1483 13.0902 27.2409 13.0902 27.3334 13.013C27.3797 12.9744 27.4255 12.8974 27.4255 12.8202C27.4255 12.7429 27.3797 12.6662 27.3334 12.6275C27.2871 12.589 27.1946 12.5504 27.0561 12.5504C26.3173 12.5118 25.44 12.5504 25.44 11.7022C25.44 11.3165 25.717 10.8923 26.5482 10.8923H28.0719V11.5477H26.6406C26.5022 11.5477 26.4097 11.5477 26.3172 11.5863C26.2251 11.625 26.2251 11.7022 26.2251 11.7792C26.2251 11.8949 26.3172 11.9335 26.4096 11.9718C26.5022 12.0104 26.5944 12.0104 26.6866 12.0104H27.1023C27.5179 12.0104 27.7949 12.0876 27.9796 12.2418C28.1182 12.3576 28.2105 12.5504 28.2105 12.8202C28.2105 13.3984 27.795 13.6685 27.01 13.6685ZM30.9811 13.3984C30.7966 13.5529 30.4732 13.6685 30.0113 13.6685H28.534V13.0902H30.0112C30.1498 13.0902 30.2424 13.0902 30.3346 13.013C30.3806 12.9744 30.427 12.8974 30.427 12.8202C30.427 12.7429 30.3806 12.6662 30.3346 12.6275C30.2884 12.589 30.1961 12.5504 30.0576 12.5504C29.319 12.5118 28.4414 12.5504 28.4414 11.7022C28.4414 11.3357 28.6925 11.0047 29.3117 10.9063C29.3858 10.8978 29.464 10.8923 29.5497 10.8923H31.0736V11.5477H30.0576H29.6883H29.642C29.5035 11.5477 29.4112 11.5477 29.319 11.5863C29.2725 11.625 29.2263 11.7022 29.2263 11.7792C29.2263 11.8949 29.2725 11.9335 29.4112 11.9718C29.5035 12.0104 29.5958 12.0104 29.6883 12.0104H29.7342H30.1037C30.3055 12.0104 30.4581 12.0312 30.5978 12.0722C30.7257 12.1108 31.1491 12.269 31.2438 12.6818C31.252 12.7251 31.258 12.7702 31.258 12.8202C31.258 13.0516 31.1657 13.2444 30.9811 13.3984Z" fill="white"/>
</svg>
