<svg width="24" height="30" viewBox="0 0 24 30" fill="none" xmlns="http://www.w3.org/2000/svg">
<path d="M12.0012 16.7063C10.7003 16.7079 9.43897 16.2585 8.43215 15.4345C7.42532 14.6106 6.73522 13.4632 6.47937 12.1876C6.45897 12.0532 6.46803 11.916 6.50593 11.7855C6.54382 11.655 6.60963 11.5343 6.69881 11.4317C6.78798 11.3292 6.89839 11.2473 7.02238 11.1916C7.14637 11.136 7.28097 11.1079 7.41687 11.1095C7.64021 11.1062 7.85737 11.1828 8.02925 11.3255C8.20112 11.4681 8.31642 11.6675 8.35437 11.8876C8.53093 12.7303 8.99212 13.4866 9.66048 14.0295C10.3288 14.5723 11.1636 14.8686 12.0247 14.8686C12.8857 14.8686 13.7205 14.5723 14.3889 14.0295C15.0572 13.4866 15.5184 12.7303 15.695 11.8876C15.7329 11.6675 15.8482 11.4681 16.0201 11.3255C16.192 11.1828 16.4091 11.1062 16.6325 11.1095C16.7684 11.1079 16.903 11.136 17.027 11.1916C17.151 11.2473 17.2614 11.3292 17.3505 11.4317C17.4397 11.5343 17.5055 11.655 17.5434 11.7855C17.5813 11.916 17.5904 12.0532 17.57 12.1876C17.3126 13.4711 16.6156 14.6247 15.5991 15.4495C14.5826 16.2743 13.3102 16.7188 12.0012 16.7063Z" fill="#1C0D00"/>
<path d="M12.0012 16.7063C10.7003 16.7079 9.43897 16.2585 8.43215 15.4345C7.42532 14.6106 6.73522 13.4632 6.47937 12.1876C6.45897 12.0532 6.46803 11.916 6.50593 11.7855C6.54382 11.655 6.60963 11.5343 6.69881 11.4317C6.78798 11.3292 6.89839 11.2473 7.02238 11.1916C7.14637 11.136 7.28097 11.1079 7.41687 11.1095C7.64021 11.1062 7.85737 11.1828 8.02925 11.3255C8.20112 11.4681 8.31642 11.6675 8.35437 11.8876C8.53093 12.7303 8.99212 13.4866 9.66048 14.0295C10.3288 14.5723 11.1636 14.8686 12.0247 14.8686C12.8857 14.8686 13.7205 14.5723 14.3889 14.0295C15.0572 13.4866 15.5184 12.7303 15.695 11.8876C15.7329 11.6675 15.8482 11.4681 16.0201 11.3255C16.192 11.1828 16.4091 11.1062 16.6325 11.1095C16.7684 11.1079 16.903 11.136 17.027 11.1916C17.151 11.2473 17.2614 11.3292 17.3505 11.4317C17.4397 11.5343 17.5055 11.655 17.5434 11.7855C17.5813 11.916 17.5904 12.0532 17.57 12.1876C17.3126 13.4711 16.6156 14.6247 15.5991 15.4495C14.5826 16.2743 13.3102 16.7188 12.0012 16.7063Z" fill="black" fill-opacity="0.2"/>
<path d="M20.3434 29.0625H3.65586C3.27438 29.063 2.89679 28.9859 2.54606 28.8358C2.19533 28.6857 1.8788 28.4659 1.61571 28.1897C1.35262 27.9134 1.14847 27.5865 1.0157 27.2289C0.882922 26.8713 0.824288 26.4904 0.843362 26.1094L1.60274 9.94688C1.63417 9.22229 1.9443 8.53784 2.46838 8.03647C2.99246 7.53511 3.68996 7.25558 4.41524 7.25626H19.584C20.3093 7.25558 21.0068 7.53511 21.5308 8.03647C22.0549 8.53784 22.3651 9.22229 22.3965 9.94688L23.1559 26.1094C23.1749 26.4904 23.1163 26.8713 22.9835 27.2289C22.8507 27.5865 22.6466 27.9134 22.3835 28.1897C22.1204 28.4659 21.8039 28.6857 21.4532 28.8358C21.1024 28.9859 20.7248 29.063 20.3434 29.0625ZM4.41524 9.14063C4.1666 9.14063 3.92814 9.2394 3.75232 9.41522C3.57651 9.59104 3.47774 9.82949 3.47774 10.0781L2.71836 26.2031C2.712 26.3301 2.73155 26.4571 2.77581 26.5763C2.82007 26.6955 2.88811 26.8045 2.97581 26.8966C3.06351 26.9886 3.16902 27.0619 3.28593 27.1119C3.40284 27.162 3.5287 27.1877 3.65586 27.1875H20.3434C20.4705 27.1877 20.5964 27.162 20.7133 27.1119C20.8302 27.0619 20.9357 26.9886 21.0234 26.8966C21.1111 26.8045 21.1792 26.6955 21.2234 26.5763C21.2677 26.4571 21.2872 26.3301 21.2809 26.2031L20.5215 10.0406C20.5215 9.79199 20.4227 9.55354 20.2469 9.37772C20.0711 9.2019 19.8326 9.10313 19.584 9.10313L4.41524 9.14063Z" fill="#1C0D00"/>
<path d="M20.3434 29.0625H3.65586C3.27438 29.063 2.89679 28.9859 2.54606 28.8358C2.19533 28.6857 1.8788 28.4659 1.61571 28.1897C1.35262 27.9134 1.14847 27.5865 1.0157 27.2289C0.882922 26.8713 0.824288 26.4904 0.843362 26.1094L1.60274 9.94688C1.63417 9.22229 1.9443 8.53784 2.46838 8.03647C2.99246 7.53511 3.68996 7.25558 4.41524 7.25626H19.584C20.3093 7.25558 21.0068 7.53511 21.5308 8.03647C22.0549 8.53784 22.3651 9.22229 22.3965 9.94688L23.1559 26.1094C23.1749 26.4904 23.1163 26.8713 22.9835 27.2289C22.8507 27.5865 22.6466 27.9134 22.3835 28.1897C22.1204 28.4659 21.8039 28.6857 21.4532 28.8358C21.1024 28.9859 20.7248 29.063 20.3434 29.0625ZM4.41524 9.14063C4.1666 9.14063 3.92814 9.2394 3.75232 9.41522C3.57651 9.59104 3.47774 9.82949 3.47774 10.0781L2.71836 26.2031C2.712 26.3301 2.73155 26.4571 2.77581 26.5763C2.82007 26.6955 2.88811 26.8045 2.97581 26.8966C3.06351 26.9886 3.16902 27.0619 3.28593 27.1119C3.40284 27.162 3.5287 27.1877 3.65586 27.1875H20.3434C20.4705 27.1877 20.5964 27.162 20.7133 27.1119C20.8302 27.0619 20.9357 26.9886 21.0234 26.8966C21.1111 26.8045 21.1792 26.6955 21.2234 26.5763C21.2677 26.4571 21.2872 26.3301 21.2809 26.2031L20.5215 10.0406C20.5215 9.79199 20.4227 9.55354 20.2469 9.37772C20.0711 9.2019 19.8326 9.10313 19.584 9.10313L4.41524 9.14063Z" fill="black" fill-opacity="0.2"/>
<path d="M17.625 8.20312H15.75V6.5625C15.75 5.56794 15.3549 4.61411 14.6516 3.91085C13.9484 3.20759 12.9946 2.8125 12 2.8125C11.0054 2.8125 10.0516 3.20759 9.34835 3.91085C8.64509 4.61411 8.25 5.56794 8.25 6.5625V8.20312H6.375V6.5625C6.375 5.07066 6.96763 3.63992 8.02252 2.58502C9.07742 1.53013 10.5082 0.9375 12 0.9375C13.4918 0.9375 14.9226 1.53013 15.9775 2.58502C17.0324 3.63992 17.625 5.07066 17.625 6.5625V8.20312Z" fill="#1C0D00"/>
<path d="M17.625 8.20312H15.75V6.5625C15.75 5.56794 15.3549 4.61411 14.6516 3.91085C13.9484 3.20759 12.9946 2.8125 12 2.8125C11.0054 2.8125 10.0516 3.20759 9.34835 3.91085C8.64509 4.61411 8.25 5.56794 8.25 6.5625V8.20312H6.375V6.5625C6.375 5.07066 6.96763 3.63992 8.02252 2.58502C9.07742 1.53013 10.5082 0.9375 12 0.9375C13.4918 0.9375 14.9226 1.53013 15.9775 2.58502C17.0324 3.63992 17.625 5.07066 17.625 6.5625V8.20312Z" fill="black" fill-opacity="0.2"/>
</svg>
